<svg id="Komponente_18_1" data-name="Komponente 18 – 1" xmlns="http://www.w3.org/2000/svg" width="68.572" height="79.522" viewBox="0 0 68.572 79.522">
  <path id="Pfad_96" data-name="Pfad 96" d="M-972.38,1855.847v-23.96c0-1.343-.206-2.375-1.239-2.375s-1.239,1.033-1.239,2.375V1854.4c0,7.746,7.333,10.844,7.333,20.139v21.275c0,5.267-2.066,8.468-6.093,8.468-3.924,0-6.093-2.892-6.093-8.468v-22.721h4.854v24.063c0,1.343.207,2.375,1.239,2.375s1.239-1.033,1.239-2.375V1874.54c0-7.642-7.333-10.74-7.333-20.139v-21.171c0-5.267,2.169-8.469,6.2-8.469,3.924,0,5.99,3.2,5.99,8.469v22.617Z" transform="translate(979.712 -1824.761)"/>
  <path id="Pfad_97" data-name="Pfad 97" d="M-853.351,1886.674h-2.788l-.31,20.862h-4.957l2.065-78.489h9.088l2.169,78.489h-4.957Zm-.1-4.75-.826-47.61h-1.033l-.723,47.61Z" transform="translate(875.658 -1828.531)"/>
  <path id="Pfad_98" data-name="Pfad 98" d="M-723.112,1868.292l3.408,39.244h-4.854l-2.685-36.869h-1.033l.31,36.869h-4.854v-78.489h4.854l-.31,36.869h1.033l2.685-36.869h4.854Z" transform="translate(762.563 -1828.531)"/>
  <path id="Pfad_99" data-name="Pfad 99" d="M-599.377,1833.8v32.119h3.1v4.751h-3.1v32.119h3.1v4.75h-7.952v-78.489h7.952v4.751Z" transform="translate(649.464 -1828.531)"/>
  <path id="Pfad_100" data-name="Pfad 100" d="M-513.027,1886.674h-2.788l-.31,20.862h-4.957l2.065-78.489h9.088l2.169,78.489h-4.957Zm-.1-4.75-.826-47.61h-1.033l-.723,47.61Z" transform="translate(576.331 -1828.531)"/>
  <g id="Gruppe_87" data-name="Gruppe 87" transform="translate(1.061 40.407)" opacity="0">
    <path id="Pfad_119" data-name="Pfad 119" d="M1905.969,1717.163a31.671,31.671,0,0,0,4.879,15.173" transform="translate(-1905.488 -1717.135)" fill="#d2f716"/>
  </g>
  <path id="Pfad_141" data-name="Pfad 141" d="M1920.8,1763.11l1.606,5.006.428.241.375-3.881-1.2-1.767Z" transform="translate(-1917.47 -1716.787)" fill="#d2f716" opacity="0"/>
  <g id="Gruppe_88" data-name="Gruppe 88" transform="translate(61.43 24.161)" opacity="0">
    <path id="Pfad_121" data-name="Pfad 121" d="M2407.211,1611.234a31.915,31.915,0,0,0-.486-27.383" transform="translate(-2406.294 -1583.636)" fill="#d2f716"/>
  </g>
</svg>
